<?xml version="1.0" encoding="UTF-8"?>
<svg id="_Слой_1" data-name="Слой 1" xmlns="http://www.w3.org/2000/svg" viewBox="0 0 223.31 65.85">
  <path d="M39.76,65h-6.26V20.04H6.36v44.96H0V14.27H39.76v50.73Z"/>
  <path d="M54.63,20.5c4.2-4.71,9.89-7.07,17.09-7.07s12.89,2.36,17.09,7.07c4.2,4.71,6.29,11.1,6.29,19.16s-2.1,14.44-6.29,19.14c-4.2,4.7-9.89,7.05-17.09,7.05s-12.89-2.35-17.09-7.05c-4.2-4.7-6.29-11.08-6.29-19.14s2.1-14.45,6.29-19.16Zm29.41,4.27c-3.04-3.67-7.14-5.5-12.32-5.5s-9.29,1.83-12.32,5.5c-3.04,3.67-4.55,8.63-4.55,14.89s1.52,11.19,4.55,14.85c3.04,3.67,7.14,5.5,12.32,5.5s9.29-1.83,12.32-5.5c3.04-3.67,4.55-8.62,4.55-14.85s-1.52-11.22-4.55-14.89Z"/>
  <path d="M134.89,65l-14.38-42.68h-.21l-14.38,42.68h-6.64L117.28,14.27h6.26l18,50.73h-6.64Z"/>
  <path d="M179.12,59.31v5.7h-31.43V14.27h31.43v5.7h-25.1v16.28h23.8v5.63h-23.8v17.44h25.1Zm-12.55-49.15h-5.41L168.89,0h6.82l-9.14,10.16Z"/>
  <path d="M207.32,65h-6.33V19.97h-16v-5.7h38.32v5.7h-16v45.04Z"/>
</svg>